nColumns=19
nRows=108
DataType=double
version=3
OpenSimVersion=4.1
endheader
time	ground_force_calcn_r_vx	ground_force_calcn_r_vy	ground_force_calcn_r_vz	ground_force_calcn_r_px	ground_force_calcn_r_py	ground_force_calcn_r_pz	ground_force_calcn_r_mx	ground_force_calcn_r_my	ground_force_calcn_r_mz	ground_force_calcn_l_vx	ground_force_calcn_l_vy	ground_force_calcn_l_vz	ground_force_calcn_l_px	ground_force_calcn_l_py	ground_force_calcn_l_pz	ground_force_calcn_l_mx	ground_force_calcn_l_my	ground_force_calcn_l_mz
0	-159.143	628.312	18.444	0.0593875	0	-0.195622	-0.32059	1.26572	0.037155	0	0	0	0	0	0	0	0	0
0.01	-167.27	662.837	11.4301	0.0631919	0	-0.194119	-0.263329	1.04349	0.0179941	0	0	0	0	0	0	0	0	0
0.02	-175.506	699.942	3.77679	0.0677279	0	-0.192373	-0.212019	0.845563	0.00456254	0	0	0	0	0	0	0	0	0
0.03	-183.408	738.542	-4.23905	0.0722183	0	-0.190668	-0.170389	0.686114	-0.00393813	0	0	0	0	0	0	0	0	0
0.04	-190.494	777.541	-12.2768	0.0765626	0	-0.189051	-0.141555	0.577787	-0.00912285	0	0	0	0	0	0	0	0	0
0.05	-196.302	815.87	-19.9919	0.0806834	0	-0.187552	-0.12695	0.52763	-0.0129289	0	0	0	0	0	0	0	0	0
0.06	-200.448	852.487	-27.0759	0.0845357	0	-0.186186	-0.125926	0.53555	-0.0170096	0	0	0	0	0	0	0	0	0
0.07	-202.656	886.381	-33.2734	0.088098	0	-0.184952	-0.136351	0.596373	-0.0223869	0	0	0	0	0	0	0	0	0
0.08	-202.764	916.565	-38.3975	0.0913753	0	-0.183839	-0.15508	0.701017	-0.0293676	0	0	0	0	0	0	0	0	0
0.09	-200.728	942.111	-42.3679	0.0943892	0	-0.18282	-0.177994	0.83541	-0.0375694	0	0	0	0	0	0	0	0	0
0.1	-196.626	962.218	-45.2258	0.09718	0	-0.181861	-0.200634	0.981831	-0.0461476	0	0	0	0	0	0	0	0	0
0.11	-190.639	976.276	-47.1053	0.099795	0	-0.180925	-0.219204	1.12256	-0.0541635	0	0	0	0	0	0	0	0	0
0.12	-183.024	983.929	-48.1907	0.102289	0	-0.179971	-0.231101	1.24238	-0.0608492	0	0	0	0	0	0	0	0	0
0.13	-174.088	985.111	-48.6715	0.104714	0	-0.178965	-0.235019	1.3299	-0.0657067	0	0	0	0	0	0	0	0	0
0.14	-164.15	980.038	-48.7069	0.107119	0	-0.17788	-0.230869	1.37838	-0.0685039	0	0	0	0	0	0	0	0	0
0.15	-153.524	969.186	-48.4095	0.10955	0	-0.176696	-0.219482	1.38557	-0.0692075	0	0	0	0	0	0	0	0	0
0.16	-142.502	953.257	-47.849	0.112046	0	-0.175398	-0.202254	1.35297	-0.0679126	0	0	0	0	0	0	0	0	0
0.17	-131.341	933.118	-47.0628	0.114637	0	-0.173983	-0.180804	1.28453	-0.0647867	0	0	0	0	0	0	0	0	0
0.18	-120.263	909.745	-46.0697	0.117347	0	-0.172451	-0.156716	1.1855	-0.0600339	0	0	0	0	0	0	0	0	0
0.19	-109.449	884.173	-44.8845	0.120187	0	-0.170812	-0.131425	1.0617	-0.0538965	0	0	0	0	0	0	0	0	0
0.2	-99.0414	857.448	-43.5287	0.123159	0	-0.169077	-0.106137	0.918881	-0.0466474	0	0	0	0	0	0	0	0	0
0.21	-89.1438	830.585	-42.0347	0.126257	0	-0.167268	-0.0818065	0.762221	-0.0385749	0	0	0	0	0	0	0	0	0
0.22	-79.826	804.524	-40.4458	0.129465	0	-0.165411	-0.0591549	0.596191	-0.0299723	0	0	0	0	0	0	0	0	0
0.23	-71.1247	780.098	-38.8126	0.132755	0	-0.163536	-0.0386881	0.424332	-0.021112	0	0	0	0	0	0	0	0	0
0.24	-63.0477	758	-37.1871	0.136093	0	-0.161681	-0.0207035	0.248911	-0.0122115	0	0	0	0	0	0	0	0	0
0.25	-55.578	738.763	-35.6167	0.139442	0	-0.159882	-0.00532023	0.0707184	-0.00340942	0	0	0	0	0	0	0	0	0
0.26	-48.679	722.752	-34.1387	0.142761	0	-0.158178	0.00745622	-0.110705	0.00522906	0	0	0	0	0	0	0	0	0
0.27	-42.2991	710.176	-32.7774	0.146014	0	-0.156604	0.0176733	-0.296724	0.013695	0	0	0	0	0	0	0	0	0
0.28	-36.3745	701.105	-31.5461	0.149177	0	-0.155188	0.0253813	-0.489214	0.0220121	0	0	0	0	0	0	0	0	0
0.29	-30.833	695.507	-30.4512	0.15223	0	-0.153949	0.0305874	-0.689967	0.0302087	0	0	0	0	0	0	0	0	0
0.3	-25.5975	693.282	-29.4993	0.155173	0	-0.1529	0.033234	-0.900109	0.0382998	0	0	0	0	0	0	0	0	0
0.31	-20.5904	694.289	-28.7009	0.158012	0	-0.15204	0.0332112	-1.11985	0.0462929	0	0	0	0	0	0	0	0	0
0.32	-15.7362	698.367	-28.0737	0.160765	0	-0.151364	0.0303852	-1.34848	0.0542077	0	0	0	0	0	0	0	0	0
0.33	-10.9636	705.348	-27.641	0.163458	0	-0.150856	0.0246279	-1.58445	0.0620912	0	0	0	0	0	0	0	0	0
0.34	-6.20677	715.067	-27.4298	0.166121	0	-0.150494	0.0158451	-1.82547	0.0700246	0	0	0	0	0	0	0	0	0
0.35	-1.40513	727.368	-27.4675	0.168783	0	-0.150254	0.00399621	-2.06865	0.0781182	0	0	0	0	0	0	0	0	0
0.36	3.50064	742.104	-27.7821	0.171472	0	-0.150112	-0.0108995	-2.3106	0.0865014	0	0	0	0	0	0	0	0	0
0.37	8.57138	759.13	-28.402	0.174211	0	-0.150041	-0.0287624	-2.54736	0.0953069	0	0	0	0	0	0	0	0	0
0.38	13.8707	778.284	-29.3561	0.177013	0	-0.15002	-0.0494447	-2.77434	0.104645	0	0	0	0	0	0	0	0	0
0.39	19.4661	799.382	-30.6674	0.179885	0	-0.15003	-0.0727179	-2.98619	0.114562	0	0	0	0	0	0	0	0	0
0.4	25.4292	822.189	-32.344	0.182827	0	-0.150054	-0.0982526	-3.17675	0.12497	0	0	0	0	0	0	0	0	0
0.41	31.8343	846.408	-34.3692	0.185833	0	-0.150086	-0.125595	-3.33931	0.135596	0	0	0	0	0	0	0	0	0
0.42	38.7538	871.659	-36.6931	0.188892	0	-0.150123	-0.154148	-3.46712	0.145951	0	0	0	0	0	0	0	0	0
0.43	46.2528	897.465	-39.2266	0.19199	0	-0.150169	-0.183151	-3.55376	0.155329	0	0	0	0	0	0	0	0	0
0.44	54.3816	923.24	-41.8407	0.195115	0	-0.150231	-0.211689	-3.59385	0.162871	0	0	0	0	0	0	0	0	0
0.45	63.1689	948.285	-44.3731	0.198256	0	-0.150322	-0.238744	-3.58399	0.167706	0	0	0	0	0	0	0	0	0
0.46	72.6145	971.808	-46.6401	0.201402	0	-0.150454	-0.26329	-3.52364	0.16911	0	0	0	0	0	0	0	0	0
0.47	82.6843	992.943	-48.4552	0.204541	0	-0.15064	-0.284426	-3.41562	0.166681	0	0	0	0	0	0	0	0	0
0.48	93.3038	1010.78	-49.6473	0.207667	0	-0.150891	-0.301509	-3.26632	0.160434	0	0	0	0	0	0	0	0	0
0.49	104.348	1024.4	-50.0754	0.210772	0	-0.151219	-0.314276	-3.0853	0.150818	0	0	0	0	0	0	0	0	0
0.5	115.629	1032.87	-49.6347	0.213847	0	-0.151631	-0.32294	-2.88471	0.138625	6.47658	32.1644	-9.38757	0.659784	0	-0.236975	-0.0335634	-0.166685	0.048649
0.51	126.886	1035.28	-48.2573	0.216888	0	-0.152132	-0.32827	-2.6784	0.124848	5.15342	54.2776	-11.0103	0.697245	0	-0.251902	-0.0106342	-0.112004	0.0227201
0.52	137.782	1030.74	-45.9155	0.219894	0	-0.152723	-0.331571	-2.48047	0.110495	2.75484	81.574	-12.6328	0.717226	0	-0.259657	-0.0028862	-0.0854639	0.0132352
0.53	147.909	1018.41	-42.628	0.222865	0	-0.153403	-0.334548	-2.30349	0.0964182	-0.998782	114.207	-14.1324	0.7302	0	-0.264311	0.000550719	-0.0629729	0.00779249
0.54	156.812	997.578	-38.4679	0.225809	0	-0.154167	-0.339014	-2.15667	0.0831641	-6.39844	152	-15.3445	0.739755	0	-0.267403	0.00130557	-0.031015	0.00313097
0.55	164.018	967.709	-33.5653	0.228736	0	-0.155009	-0.346506	-2.04439	0.0709104	-13.6457	194.409	-16.0661	0.747467	0	-0.269639	-0.00148727	0.0211889	-0.00175107
0.56	169.067	928.54	-28.1042	0.231657	0	-0.155916	-0.357915	-1.96572	0.0594965	-22.6486	240.683	-16.0794	0.754122	0	-0.271394	-0.00975496	0.103664	-0.00692555
0.57	171.548	880.167	-22.3134	0.234591	0	-0.156877	-0.373212	-1.91485	0.0485439	-32.9872	290.1	-15.188	0.760122	0	-0.272871	-0.0251845	0.22148	-0.0115955
0.58	171.138	823.115	-16.4526	0.237557	0	-0.157879	-0.391362	-1.88232	0.0376241	-44.1052	341.961	-13.2609	0.765672	0	-0.274173	-0.047902	0.371398	-0.0144025
0.59	167.635	758.374	-10.792	0.240577	0	-0.15891	-0.410402	-1.85664	0.0264208	-55.4875	395.517	-10.2716	0.770882	0	-0.275343	-0.0760935	0.542397	-0.0140861
0.6	161.006	687.386	-5.58883	0.243681	0	-0.159954	-0.427724	-1.82609	0.0148471	-66.7149	449.982	-6.31116	0.775819	0	-0.276392	-0.106547	0.718641	-0.0100792
0.61	151.411	611.991	-1.06167	0.246904	0	-0.161003	-0.440574	-1.78076	0.00308923	-77.4129	504.614	-1.57569	0.780512	0	-0.277316	-0.135531	0.883454	-0.00275865
0.62	139.22	534.322	2.63121	0.250291	0	-0.16205	-0.446578	-1.71396	-0.00844019	-87.2205	558.737	3.6745	0.784971	0	-0.278103	-0.15977	1.02349	0.00673094
0.63	125	456.657	5.40854	0.253901	0	-0.163097	-0.444197	-1.62276	-0.0192196	-95.8266	611.688	9.17136	0.789202	0	-0.278751	-0.177268	1.13155	0.0169659
0.64	109.477	381.234	7.2724	0.257811	0	-0.164151	-0.433049	-1.50802	-0.0287669	-103.019	662.785	14.6851	0.793218	0	-0.279262	-0.187559	1.20668	0.0267362
0.65	93.4408	310.042	8.30172	0.262144	0	-0.16524	-0.41406	-1.37388	-0.0367871	-108.689	711.331	20.0291	0.797045	0	-0.279647	-0.191195	1.2513	0.0352333
0.66	77.6303	244.687	8.63273	0.267105	0	-0.166407	-0.389372	-1.22728	-0.0432994	-112.794	756.644	25.0412	0.800719	0	-0.279917	-0.189128	1.2687	0.0419878
0.67	62.6394	186.33	8.42999	0.273076	0	-0.16774	-0.362075	-1.07704	-0.0487279	-115.359	798.105	29.5789	0.804284	0	-0.280083	-0.182651	1.26365	0.0468329
0.68	48.8999	135.666	7.85696	0.280804	0	-0.169405	-0.33617	-0.932657	-0.0540139	-116.474	835.171	33.5272	0.807796	0	-0.280155	-0.173355	1.24303	0.0499003
0.69	36.6951	92.9346	7.05541	0.291908	0	-0.171785	-0.317493	-0.804089	-0.0610448	-116.281	867.377	36.8037	0.811311	0	-0.280141	-0.162827	1.21458	0.0515359
0.7	26.1774	57.9678	6.13829	0.310603	0	-0.17599	-0.317802	-0.703747	-0.0745208	-114.954	894.331	39.3733	0.814891	0	-0.28005	-0.152414	1.18576	0.0522038
0.71	17.3856	30.2749	5.19056	0.352479	0	-0.187067	-0.374667	-0.652435	-0.111859	-112.691	915.751	41.2603	0.818597	0	-0.279894	-0.143095	1.16282	0.0523922
0.72	0	0	0	0	0	0	0	0	0	-109.692	931.504	42.5339	0.822482	0	-0.279681	-0.135383	1.14968	0.052496
0.73	0	0	0	0	0	0	0	0	0	-106.147	941.633	43.2818	0.826596	0	-0.279419	-0.129374	1.14768	0.0527527
0.74	0	0	0	0	0	0	0	0	0	-102.225	946.366	43.5889	0.830977	0	-0.279113	-0.124897	1.15626	0.0532566
0.75	0	0	0	0	0	0	0	0	0	-98.0644	946.099	43.5266	0.835657	0	-0.278768	-0.121685	1.17398	0.0540108
0.76	0	0	0	0	0	0	0	0	0	-93.7793	941.373	43.1506	0.840655	0	-0.278386	-0.119482	1.19938	0.0549772
0.77	0	0	0	0	0	0	0	0	0	-89.457	932.847	42.5058	0.845983	0	-0.27797	-0.1181	1.23154	0.0561159
0.78	0	0	0	0	0	0	0	0	0	-85.1582	921.255	41.6313	0.851635	0	-0.277521	-0.117443	1.27052	0.0574146
0.79	0	0	0	0	0	0	0	0	0	-80.92	907.364	40.5629	0.857594	0	-0.277045	-0.117499	1.31753	0.058899
0.8	0	0	0	0	0	0	0	0	0	-76.7625	891.921	39.3355	0.863826	0	-0.276541	-0.118316	1.37474	0.0606287
0.81	0	0	0	0	0	0	0	0	0	-72.6925	875.616	37.9865	0.870284	0	-0.276016	-0.119945	1.4448	0.0626792
0.82	0	0	0	0	0	0	0	0	0	-68.7046	859.054	36.5604	0.87691	0	-0.275473	-0.12237	1.53006	0.0651177
0.83	0	0	0	0	0	0	0	0	0	-64.7814	842.752	35.1112	0.883632	0	-0.274916	-0.125437	1.63184	0.0679865
0.84	0	0	0	0	0	0	0	0	0	-60.8949	827.146	33.6998	0.890373	0	-0.274353	-0.128864	1.75038	0.0713146
0.85	0	0	0	0	0	0	0	0	0	-57.0067	812.6	32.3858	0.897048	0	-0.27379	-0.132271	1.88546	0.075144
0.86	0	0	0	0	0	0	0	0	0	-53.0654	799.421	31.2198	0.903569	0	-0.273231	-0.135205	2.03684	0.0795448
0.87	0	0	0	0	0	0	0	0	0	-49.0076	787.869	30.2385	0.909842	0	-0.272682	-0.137144	2.20479	0.0846202
0.88	0	0	0	0	0	0	0	0	0	-44.7605	778.169	29.4638	0.915781	0	-0.272144	-0.137495	2.39038	0.0905068
0.89	0	0	0	0	0	0	0	0	0	-40.245	770.508	28.9072	0.921304	0	-0.27162	-0.135554	2.59524	0.097366
0.9	0	0	0	0	0	0	0	0	0	-35.3793	765.036	28.5776	0.926342	0	-0.271112	-0.130447	2.82075	0.105368
0.91	0	0	0	0	0	0	0	0	0	-30.0826	761.863	28.4863	0.930844	0	-0.270624	-0.121102	3.06698	0.114675
0.92	0	0	0	0	0	0	0	0	0	-24.2795	761.051	28.6494	0.93478	0	-0.27016	-0.106298	3.33195	0.12543
0.93	0	0	0	0	0	0	0	0	0	-17.9047	762.607	29.086	0.938144	0	-0.269726	-0.084786	3.61126	0.137734
0.94	0	0	0	0	0	0	0	0	0	-10.9075	766.484	29.8132	0.940957	0	-0.269323	-0.0554743	3.89825	0.151627
0.95	0	0	0	0	0	0	0	0	0	-3.25409	772.585	30.8413	0.94326	0	-0.268955	-0.0176249	4.1845	0.167044
0.96	0	0	0	0	0	0	0	0	0	5.07164	780.764	32.1687	0.945109	0	-0.268627	0.0289751	4.46062	0.183784
0.97	0	0	0	0	0	0	0	0	0	14.0696	790.827	33.7777	0.946568	0	-0.268338	0.0839208	4.71703	0.201473
0.98	0	0	0	0	0	0	0	0	0	23.7242	802.524	35.6328	0.947709	0	-0.268089	0.146168	4.94447	0.219539
0.99	0	0	0	0	0	0	0	0	0	34.0007	815.534	37.6797	0.948595	0	-0.267879	0.214047	5.13409	0.237208
1	0	0	0	0	0	0	0	0	0	44.8422	829.456	39.8473	0.949291	0	-0.267702	0.285309	5.27743	0.253529
1.01	0	0	0	0	0	0	0	0	0	56.1642	843.807	42.0515	0.949851	0	-0.267556	0.357187	5.36636	0.267435
1.02	0	0	0	0	0	0	0	0	0	67.849	858.021	44.1995	0.950323	0	-0.267435	0.426471	5.39317	0.27782
1.03	0	0	0	0	0	0	0	0	0	79.7463	871.451	46.1947	0.950748	0	-0.267333	0.489663	5.35093	0.283647
1.04	0	0	0	0	0	0	0	0	0	91.68	883.365	47.9405	0.951158	0	-0.267247	0.543242	5.2343	0.284068
1.05	8.69271	27.8144	4.4923	1.39539	0	-0.117503	0.0648165	0.207396	0.0334965	103.453	892.94	49.3429	0.951578	0	-0.267168	0.584022	5.0409	0.278554
1.06	7.73587	50.2211	5.28792	1.43281	0	-0.117283	0.0112994	0.0733552	0.00772378	114.852	899.273	50.3095	0.952025	0	-0.267092	0.609547	4.77264	0.267004
1.07	5.80148	78.3748	6.04259	1.45204	0	-0.116024	-0.00395894	-0.053483	-0.00412347	125.648	901.398	50.7509	0.952514	0	-0.267012	0.618427	4.43661	0.249792
